<svg width="321" height="321" viewBox="0 0 321 321" fill="none" xmlns="http://www.w3.org/2000/svg">
<path d="M43 143L160.45 79.3604L277 143L160.45 206.64L43 143Z" fill="#FCDDBC"/>
<path d="M30 154L160 220V270.5L30 200V154Z" fill="#4C191B"/>
<path d="M30 154L160 220V270.5L30 200V154Z" fill="#4C191B"/>
<path d="M290 154L160 220V270.5L290 200V154Z" fill="#4C191B"/>
<path d="M290 154L160 220V270.5L290 200V154Z" fill="#4C191B"/>
<path d="M140 301L140 270.816L140 240.775L180 240.775L180 270.816V301L160 307L140 301Z" fill="#4C191B"/>
<path d="M30.1123 245L30.1123 219.041L30.1123 189L70.1123 189L70.1123 219.041L70.1123 249.225L50.1123 255.225L30.1123 245Z" fill="#4C191B"/>
<path d="M250.112 251.225L250.112 221.041L250.112 191L290.112 191L290.112 221.041L290.112 245L270.112 257.225L250.112 251.225Z" fill="#4C191B"/>
<path d="M125.102 163.125C121.152 163.125 117.802 161.975 115.052 159.675C112.102 157.275 110.627 154.15 110.627 150.3C110.627 146.3 112.227 142.9 115.427 140.1C118.427 137.45 122.002 136.125 126.152 136.125C129.252 136.125 131.702 136.925 133.502 138.525C135.452 140.175 136.427 142.525 136.427 145.575C136.427 147.825 135.352 149.825 133.202 151.575C131.202 153.225 129.002 154.05 126.602 154.05C124.702 154.05 123.052 153.65 121.652 152.85C119.852 151.95 118.952 150.6 118.952 148.8C118.952 148 119.227 147.175 119.777 146.325C120.277 145.375 120.952 144.9 121.802 144.9C122.002 144.9 122.102 144.975 122.102 145.125C122.102 145.175 121.877 145.4 121.427 145.8C121.227 146 121.027 146.2 120.827 146.4C120.677 146.55 120.577 146.675 120.527 146.775C120.177 147.475 120.002 148.125 120.002 148.725C120.002 150.175 120.602 151.35 121.802 152.25C122.952 153.1 124.252 153.525 125.702 153.525C128.152 153.525 130.202 152.625 131.852 150.825C133.502 149.075 134.327 146.975 134.327 144.525C134.327 142.075 133.552 140.15 132.002 138.75C130.452 137.35 128.452 136.65 126.002 136.65C122.202 136.65 118.977 138.15 116.327 141.15C113.877 143.95 112.652 147.35 112.652 151.35C112.652 154.8 114.077 157.575 116.927 159.675C119.427 161.575 122.502 162.525 126.152 162.525H127.202C131.452 161.925 135.002 159.95 137.852 156.6C138.902 155.3 139.902 153.75 140.852 151.95C141.852 150.15 142.802 148.025 143.702 145.575C144.402 143.625 145.077 141.675 145.727 139.725C146.377 137.725 147.077 135.75 147.827 133.8C148.627 131.65 149.577 129.65 150.677 127.8C151.777 125.9 153.002 124.125 154.352 122.475C157.552 118.525 160.902 115.825 164.402 114.375C161.752 114.425 159.177 114.625 156.677 114.975C154.227 115.325 151.877 115.875 149.627 116.625C143.527 118.575 139.827 121.475 138.527 125.325C138.327 125.875 138.227 126.475 138.227 127.125C138.227 128.325 138.602 129.3 139.352 130.05C140.202 130.8 141.202 131.175 142.352 131.175C144.802 131.175 146.502 129.75 147.452 126.9C147.652 126.35 147.752 125.95 147.752 125.7C147.752 125.5 147.727 125.325 147.677 125.175V124.725C147.677 124.725 147.727 124.675 147.827 124.575C148.077 124.575 148.202 124.9 148.202 125.55C148.202 127.3 147.577 128.775 146.327 129.975C145.077 131.225 143.602 131.85 141.902 131.85C140.402 131.85 139.152 131.4 138.152 130.5C137.152 129.6 136.652 128.4 136.652 126.9C136.652 122.25 140.402 118.7 147.902 116.25C150.702 115.35 153.527 114.725 156.377 114.375C159.277 113.975 162.177 113.775 165.077 113.775H166.352V113.85H166.427C165.927 114.1 165.377 114.45 164.777 114.9C164.227 115.3 163.602 115.8 162.902 116.4C158.102 120.45 154.602 125.825 152.402 132.525C150.852 137.175 149.477 141.05 148.277 144.15C147.077 147.2 146.027 149.475 145.127 150.975C141.427 157.175 136.302 161.05 129.752 162.6C129.002 162.8 128.227 162.925 127.427 162.975C126.677 163.075 125.902 163.125 125.102 163.125ZM178.577 167.925C174.677 167.925 171.177 166.35 168.077 163.2C166.877 162 165.702 160.525 164.552 158.775C163.402 157.025 162.277 155 161.177 152.7C160.327 150.85 159.502 149 158.702 147.15C157.902 145.3 157.077 143.45 156.227 141.6C155.477 141.8 154.702 141.9 153.902 141.9C153.052 141.9 152.352 141.725 151.802 141.375C151.002 141.025 150.602 140.475 150.602 139.725C150.602 139.025 150.827 138.375 151.277 137.775C151.727 137.225 152.302 136.95 153.002 136.95C154.552 136.95 156.127 138.05 157.727 140.25C158.877 139.7 160.452 138.575 162.452 136.875C164.502 135.125 167.002 132.85 169.952 130.05C171.602 128.45 173.052 127.075 174.302 125.925C175.602 124.725 176.677 123.75 177.527 123C184.527 117.1 189.977 114.15 193.877 114.15C194.527 114.15 195.227 114.3 195.977 114.6C196.877 114.95 197.327 115.45 197.327 116.1C197.327 116.4 197.152 116.55 196.802 116.55C196.652 116.55 196.527 116.5 196.427 116.4C195.977 115.9 195.327 115.65 194.477 115.65C192.377 115.65 189.452 116.85 185.702 119.25C184.302 120.15 182.927 121.075 181.577 122.025C180.277 122.975 179.027 124.025 177.827 125.175C176.277 126.575 174.727 128.025 173.177 129.525C171.677 130.975 170.127 132.425 168.527 133.875C166.577 135.725 164.752 137.25 163.052 138.45C161.352 139.6 159.777 140.45 158.327 141C159.777 143.3 161.202 145.6 162.602 147.9C164.052 150.2 165.527 152.475 167.027 154.725C169.077 157.875 171.002 160.35 172.802 162.15C174.652 163.95 176.277 165.125 177.677 165.675C178.127 165.825 178.577 165.95 179.027 166.05C179.527 166.15 179.977 166.2 180.377 166.2C183.377 166.2 185.152 164.425 185.702 160.875C185.702 160.675 185.802 160.575 186.002 160.575C186.552 160.575 186.827 160.8 186.827 161.25C186.827 161.6 186.777 161.95 186.677 162.3C186.577 162.7 186.452 163.1 186.302 163.5C185.002 166.45 182.427 167.925 178.577 167.925ZM154.577 141H154.877C155.027 141 155.177 141 155.327 141C155.527 141 155.727 140.975 155.927 140.925C155.027 139.125 154.102 138.225 153.152 138.225C152.202 138.225 151.727 138.7 151.727 139.65C151.727 140.35 152.027 140.775 152.627 140.925C152.727 140.925 152.927 140.95 153.227 141C153.527 141 153.977 141 154.577 141Z" fill="black"/>
</svg>
