<svg width="527" height="115" viewBox="0 0 527 115" fill="none" xmlns="http://www.w3.org/2000/svg">

<path d="M49.4541 89.28C44.3981 89.28 40.1101 87.808 36.5901 84.864C32.8141 81.792 30.9261 77.792 30.9261 72.864C30.9261 67.744 32.9741 63.392 37.0701 59.808C40.9101 56.416 45.4861 54.72 50.7981 54.72C54.7661 54.72 57.9021 55.744 60.2061 57.792C62.7021 59.904 63.9501 62.912 63.9501 66.816C63.9501 69.696 62.5741 72.256 59.8221 74.496C57.2621 76.608 54.4461 77.664 51.3741 77.664C48.9421 77.664 46.8301 77.152 45.0381 76.128C42.7341 74.976 41.5821 73.248 41.5821 70.944C41.5821 69.92 41.9341 68.864 42.6381 67.776C43.2781 66.56 44.1421 65.952 45.2301 65.952C45.4861 65.952 45.6141 66.048 45.6141 66.24C45.6141 66.304 45.3261 66.592 44.7501 67.104C44.4941 67.36 44.2381 67.616 43.9821 67.872C43.7901 68.064 43.6621 68.224 43.5981 68.352C43.1501 69.248 42.9261 70.08 42.9261 70.848C42.9261 72.704 43.6941 74.208 45.2301 75.36C46.7021 76.448 48.3661 76.992 50.2221 76.992C53.3581 76.992 55.9821 75.84 58.0941 73.536C60.2061 71.296 61.2621 68.608 61.2621 65.472C61.2621 62.336 60.2701 59.872 58.2861 58.08C56.3021 56.288 53.7421 55.392 50.6061 55.392C45.7421 55.392 41.6141 57.312 38.2221 61.152C35.0861 64.736 33.5181 69.088 33.5181 74.208C33.5181 78.624 35.3421 82.176 38.9901 84.864C42.1901 87.296 46.1261 88.512 50.7981 88.512H52.1421C57.5821 87.744 62.1261 85.216 65.7741 80.928C67.1181 79.264 68.3981 77.28 69.6141 74.976C70.8941 72.672 72.1101 69.952 73.2621 66.816C74.1581 64.32 75.0221 61.824 75.8541 59.328C76.6861 56.768 77.5821 54.24 78.5421 51.744C79.5661 48.992 80.7821 46.432 82.1901 44.064C83.5981 41.632 85.1661 39.36 86.8941 37.248C90.9901 32.192 95.2781 28.736 99.7581 26.88C96.3661 26.944 93.0701 27.2 89.8701 27.648C86.7341 28.096 83.7261 28.8 80.8461 29.76C73.0381 32.256 68.3021 35.968 66.6381 40.896C66.3821 41.6 66.2541 42.368 66.2541 43.2C66.2541 44.736 66.7341 45.984 67.6941 46.944C68.7821 47.904 70.0621 48.384 71.5341 48.384C74.6701 48.384 76.8461 46.56 78.0621 42.912C78.3181 42.208 78.4461 41.696 78.4461 41.376C78.4461 41.12 78.4141 40.896 78.3501 40.704V40.128C78.3501 40.128 78.4141 40.064 78.5421 39.936C78.8621 39.936 79.0221 40.352 79.0221 41.184C79.0221 43.424 78.2221 45.312 76.6221 46.848C75.0221 48.448 73.1341 49.248 70.9581 49.248C69.0381 49.248 67.4381 48.672 66.1581 47.52C64.8781 46.368 64.2381 44.832 64.2381 42.912C64.2381 36.96 69.0381 32.416 78.6381 29.28C82.2221 28.128 85.8381 27.328 89.4861 26.88C93.1981 26.368 96.9101 26.112 100.622 26.112H102.254V26.208H102.35C101.71 26.528 101.006 26.976 100.238 27.552C99.5341 28.064 98.7341 28.704 97.8381 29.472C91.6941 34.656 87.2141 41.536 84.3981 50.112C82.4141 56.064 80.6541 61.024 79.1181 64.992C77.5821 68.896 76.2381 71.808 75.0861 73.728C70.3501 81.664 63.7901 86.624 55.4061 88.608C54.4461 88.864 53.4541 89.024 52.4301 89.088C51.4701 89.216 50.4781 89.28 49.4541 89.28ZM117.902 95.424C112.91 95.424 108.43 93.408 104.462 89.376C102.926 87.84 101.422 85.952 99.9501 83.712C98.4781 81.472 97.0381 78.88 95.6301 75.936C94.5421 73.568 93.4861 71.2 92.4621 68.832C91.4381 66.464 90.3821 64.096 89.2941 61.728C88.3341 61.984 87.3421 62.112 86.3181 62.112C85.2301 62.112 84.3341 61.888 83.6301 61.44C82.6061 60.992 82.0941 60.288 82.0941 59.328C82.0941 58.432 82.3821 57.6 82.9581 56.832C83.5341 56.128 84.2701 55.776 85.1661 55.776C87.1501 55.776 89.1661 57.184 91.2141 60C92.6861 59.296 94.7021 57.856 97.2621 55.68C99.8861 53.44 103.086 50.528 106.862 46.944C108.974 44.896 110.83 43.136 112.43 41.664C114.094 40.128 115.47 38.88 116.558 37.92C125.518 30.368 132.494 26.592 137.486 26.592C138.318 26.592 139.214 26.784 140.174 27.168C141.326 27.616 141.902 28.256 141.902 29.088C141.902 29.472 141.678 29.664 141.23 29.664C141.038 29.664 140.878 29.6 140.75 29.472C140.174 28.832 139.342 28.512 138.254 28.512C135.566 28.512 131.822 30.048 127.022 33.12C125.23 34.272 123.47 35.456 121.742 36.672C120.078 37.888 118.478 39.232 116.942 40.704C114.958 42.496 112.974 44.352 110.99 46.272C109.07 48.128 107.086 49.984 105.038 51.84C102.542 54.208 100.206 56.16 98.0301 57.696C95.8541 59.168 93.8381 60.256 91.9821 60.96C93.8381 63.904 95.6621 66.848 97.4541 69.792C99.3101 72.736 101.198 75.648 103.118 78.528C105.742 82.56 108.206 85.728 110.51 88.032C112.878 90.336 114.958 91.84 116.75 92.544C117.326 92.736 117.902 92.896 118.478 93.024C119.118 93.152 119.694 93.216 120.206 93.216C124.046 93.216 126.318 90.944 127.022 86.4C127.022 86.144 127.15 86.016 127.406 86.016C128.11 86.016 128.462 86.304 128.462 86.88C128.462 87.328 128.398 87.776 128.27 88.224C128.142 88.736 127.982 89.248 127.79 89.76C126.126 93.536 122.83 95.424 117.902 95.424ZM87.1821 60.96H87.5661C87.7581 60.96 87.9501 60.96 88.1421 60.96C88.3981 60.96 88.6541 60.928 88.9101 60.864C87.7581 58.56 86.5741 57.408 85.3581 57.408C84.1421 57.408 83.5341 58.016 83.5341 59.232C83.5341 60.128 83.9181 60.672 84.6861 60.864C84.8141 60.864 85.0701 60.896 85.4541 60.96C85.8381 60.96 86.4141 60.96 87.1821 60.96ZM137.096 84.384C133.256 84.384 131.336 82.688 131.336 79.296C131.336 76.608 132.392 73.536 134.504 70.08C135.208 68.864 137.16 66.144 140.36 61.92C142.472 59.104 143.528 57.12 143.528 55.968C143.528 54.88 142.632 54.336 140.84 54.336C139.624 54.336 138.28 54.368 136.808 54.432C135.4 54.496 134.248 54.56 133.352 54.624C133.16 55.648 132.872 56.832 132.488 58.176C132.104 59.52 131.656 60.928 131.144 62.4C130.824 63.296 130.312 64.512 129.608 66.048C128.968 67.584 128.104 69.216 127.016 70.944C126.824 71.2 126.664 71.328 126.536 71.328C126.472 71.328 126.44 71.264 126.44 71.136C126.44 70.816 126.568 70.4 126.824 69.888C127.336 68.992 127.912 67.904 128.552 66.624C129.192 65.28 129.8 63.808 130.376 62.208C130.888 60.8 131.336 59.328 131.72 57.792C132.168 56.192 132.424 55.104 132.488 54.528C130.952 53.568 130.184 52.128 130.184 50.208C130.184 48.032 130.952 46.944 132.488 46.944C133.576 46.944 134.12 47.936 134.12 49.92C134.12 50.368 134.056 50.912 133.928 51.552C133.8 52.192 133.64 52.96 133.448 53.856C134.344 53.792 135.752 53.728 137.672 53.664C139.656 53.536 141.544 53.472 143.336 53.472C146.6 53.472 148.232 54.464 148.232 56.448C148.232 58.56 145.704 62.912 140.648 69.504C139.56 71.104 138.344 72.928 137 74.976C135.72 76.96 135.08 79.008 135.08 81.12C135.08 81.696 135.208 82.24 135.464 82.752C135.72 83.264 136.264 83.52 137.096 83.52C139.848 83.52 142.888 81.856 146.216 78.528C147.88 76.864 149.416 75.072 150.824 73.152C152.232 71.232 153.512 69.088 154.664 66.72C154.92 66.208 155.144 65.952 155.336 65.952C155.464 65.952 155.528 66.048 155.528 66.24C155.528 66.56 155.432 66.912 155.24 67.296C154.152 69.536 152.84 71.712 151.304 73.824C149.768 75.872 148.072 77.824 146.216 79.68C143.08 82.816 140.04 84.384 137.096 84.384ZM186.194 84.288C182.866 84.288 181.202 81.984 181.202 77.376C181.202 75.584 181.49 73.536 182.066 71.232C177.586 79.872 173.138 84.192 168.722 84.192C166.61 84.192 165.01 83.136 163.922 81.024C163.026 79.424 162.578 77.408 162.578 74.976C162.578 72.992 162.866 70.912 163.442 68.736C164.53 64.96 166.834 61.408 170.354 58.08C174.258 54.496 177.97 52.704 181.49 52.704C184.69 52.704 186.29 54.624 186.29 58.464C186.29 60.128 185.938 62.08 185.234 64.32L191.09 52.8H191.378C191.57 53.12 191.986 53.28 192.626 53.28C193.906 53.28 195.538 52.512 197.522 50.976L197.714 51.168L189.554 67.104C186.29 73.44 184.658 78.24 184.658 81.504C184.658 82.784 185.234 83.424 186.386 83.424C187.154 83.424 188.082 83.136 189.17 82.56C190.258 81.984 191.41 81.024 192.626 79.68C194.162 77.888 195.474 76.192 196.562 74.592C197.714 72.928 199.026 70.688 200.498 67.872C200.69 67.552 200.882 67.392 201.074 67.392C201.458 67.392 201.458 67.712 201.074 68.352C199.922 70.528 198.674 72.704 197.33 74.88C196.05 76.992 194.482 78.976 192.626 80.832C190.322 83.136 188.178 84.288 186.194 84.288ZM169.106 83.52C172.69 83.52 177.298 78.464 182.93 68.352C184.722 65.152 185.618 61.92 185.618 58.656C185.618 55.2 184.498 53.472 182.258 53.472C179.826 53.472 177.074 55.488 174.002 59.52C172.786 61.184 171.73 62.816 170.834 64.416C170.002 66.016 169.33 67.552 168.818 69.024C167.474 72.864 166.802 76.32 166.802 79.392C166.802 82.144 167.57 83.52 169.106 83.52ZM212.203 84.576C210.603 84.576 209.323 84.032 208.363 82.944C207.467 81.856 207.019 80.544 207.019 79.008C207.019 77.6 207.435 75.744 208.267 73.44C209.163 71.136 210.411 68.384 212.011 65.184C212.715 63.776 213.611 62.08 214.699 60.096C215.851 58.048 217.227 55.712 218.827 53.088H219.019C219.467 53.408 219.979 53.568 220.555 53.568C221.899 53.568 223.435 52.896 225.163 51.552L225.355 51.744C224.395 52.832 222.731 55.488 220.363 59.712C219.595 61.056 218.859 62.304 218.155 63.456C217.515 64.608 216.875 65.696 216.235 66.72C212.459 73.184 210.571 77.92 210.571 80.928C210.571 82.656 211.371 83.52 212.971 83.52C216.555 83.52 221.515 77.92 227.851 66.72C228.747 65.12 229.803 63.136 231.019 60.768C232.235 58.4 233.643 55.648 235.243 52.512H235.435C235.883 52.704 236.299 52.864 236.683 52.992C237.067 53.12 237.451 53.184 237.835 53.184C239.243 53.184 240.235 52.544 240.811 51.264L241.099 51.36L233.611 65.856C229.195 74.304 226.987 79.648 226.987 81.888C226.987 83.04 227.531 83.616 228.619 83.616C229.387 83.616 230.315 83.296 231.403 82.656C232.555 82.016 233.739 81.024 234.955 79.68C236.491 77.888 237.803 76.192 238.891 74.592C240.043 72.928 241.355 70.688 242.827 67.872C243.019 67.552 243.211 67.392 243.403 67.392C243.787 67.392 243.787 67.712 243.403 68.352C242.251 70.528 241.003 72.704 239.659 74.88C238.379 76.992 236.811 78.976 234.955 80.832C232.523 83.264 230.379 84.48 228.523 84.48C226.859 84.48 225.579 84.064 224.683 83.232C223.851 82.4 223.435 81.056 223.435 79.2C223.435 77.664 223.755 75.968 224.395 74.112C220.107 81.088 216.043 84.576 212.203 84.576ZM258.661 85.152C252.197 85.152 248.965 82.08 248.965 75.936C248.965 74.208 249.253 72.352 249.829 70.368V70.464C250.149 69.312 250.757 68.192 251.653 67.104C252.741 65.76 253.733 65.088 254.629 65.088C254.629 65.088 254.725 65.088 254.917 65.088C255.109 65.088 255.429 65.152 255.877 65.28L256.933 63.648C257.829 62.304 258.629 60.96 259.333 59.616C260.101 58.208 260.901 56.832 261.733 55.488C264.101 51.392 265.893 49.184 267.109 48.864C267.493 48.736 267.781 48.672 267.973 48.672C268.933 48.672 269.413 49.024 269.413 49.728C269.413 50.56 268.709 51.072 267.301 51.264C266.021 51.456 265.221 51.616 264.901 51.744C264.389 52.128 264.133 52.96 264.133 54.24C264.133 55.584 264.997 57.856 266.725 61.056C268.453 64.192 269.317 66.976 269.317 69.408C269.317 70.048 269.253 70.656 269.125 71.232C269.061 71.808 268.965 72.416 268.837 73.056C267.109 80.288 262.533 83.904 255.109 83.904C256.581 84.224 257.925 84.384 259.141 84.384C261.381 84.384 263.557 84 265.669 83.232C267.781 82.4 269.733 81.28 271.525 79.872C273.381 78.4 275.077 76.64 276.613 74.592C278.213 72.48 279.589 70.24 280.741 67.872C280.933 67.488 281.125 67.296 281.317 67.296C281.701 67.296 281.733 67.616 281.413 68.256C280.389 70.176 279.301 72 278.149 73.728C277.061 75.392 275.877 76.896 274.597 78.24C273.061 79.776 270.981 81.312 268.357 82.848C265.733 84.384 262.501 85.152 258.661 85.152ZM254.437 83.136C257.701 83.136 260.389 80.672 262.501 75.744C264.229 71.904 265.093 68.032 265.093 64.128C265.093 63.616 264.997 62.944 264.805 62.112C264.677 61.216 264.453 60.16 264.133 58.944C263.877 57.792 263.685 56.8 263.557 55.968C263.429 55.072 263.397 54.304 263.461 53.664C262.245 56.096 261.029 58.304 259.813 60.288C258.597 62.272 257.445 64.064 256.357 65.664C256.677 66.176 256.837 66.688 256.837 67.2C256.837 68.096 256.485 69.088 255.781 70.176C255.333 70.816 254.565 71.424 253.477 72C252.389 72.576 251.621 73.12 251.173 73.632C250.469 74.656 250.117 76 250.117 77.664C250.117 81.312 251.557 83.136 254.437 83.136ZM296.257 85.056C294.145 85.056 293.089 84.032 293.089 81.984C293.089 79.68 294.241 78.528 296.545 78.528C298.657 78.528 299.713 79.552 299.713 81.6C299.713 83.904 298.561 85.056 296.257 85.056ZM311.466 86.304L311.274 86.112C313.13 82.912 314.922 79.616 316.65 76.224C318.378 72.832 320.138 69.344 321.93 65.76C322.634 64.352 323.466 62.592 324.426 60.48C325.45 58.368 326.602 55.904 327.882 53.088H328.074C328.522 53.408 329.034 53.568 329.61 53.568C330.954 53.568 332.426 52.96 334.026 51.744L334.218 51.552L334.122 51.744H334.026C333.578 52.64 332.746 54.208 331.53 56.448C330.378 58.624 328.874 61.504 327.018 65.088C332.266 56.768 336.65 52.608 340.17 52.608C342.538 52.608 343.722 53.728 343.722 55.968C343.722 57.824 342.922 60.544 341.322 64.128C342.666 62.272 343.786 60.768 344.682 59.616C345.578 58.4 346.25 57.568 346.698 57.12C349.386 54.24 351.786 52.8 353.898 52.8C356.65 52.8 358.026 54.144 358.026 56.832C358.026 58.816 357.514 60.832 356.49 62.88C355.53 64.864 354.378 66.88 353.034 68.928C351.69 70.912 350.474 72.896 349.386 74.88C348.874 75.904 348.394 76.992 347.946 78.144C347.562 79.232 347.37 80.224 347.37 81.12C347.37 81.952 347.626 82.656 348.138 83.232C348.65 83.744 349.514 84 350.73 84C351.626 84 352.49 83.84 353.322 83.52C354.154 83.136 354.89 82.72 355.53 82.272C357.258 80.928 358.73 79.36 359.946 77.568C361.162 75.776 362.218 73.984 363.114 72.192C364.01 70.4 364.81 68.896 365.514 67.68C365.706 67.36 365.898 67.264 366.09 67.392C366.282 67.456 366.314 67.648 366.186 67.968C364.906 70.656 363.498 73.408 361.962 76.224C360.426 79.04 358.474 81.28 356.106 82.944C355.274 83.52 354.346 84 353.322 84.384C352.362 84.768 351.338 84.96 350.25 84.96C348.01 84.96 346.378 84.48 345.354 83.52C344.394 82.496 343.914 81.184 343.914 79.584C343.914 78.432 344.17 77.024 344.682 75.36C345.066 74.208 345.546 72.992 346.122 71.712C346.762 70.368 347.562 68.928 348.522 67.392C351.914 61.76 353.61 58.112 353.61 56.448C353.61 55.36 353.13 54.816 352.17 54.816C349.482 54.816 345.578 59.008 340.458 67.392C338.858 69.952 337.322 72.64 335.85 75.456C334.378 78.208 332.906 81.088 331.434 84.096H331.242C330.794 83.968 330.378 83.872 329.994 83.808C329.61 83.744 329.258 83.712 328.938 83.712C327.018 83.712 325.866 84.384 325.482 85.728L325.194 85.536C327.626 81.312 329.546 77.952 330.954 75.456C332.362 72.96 333.29 71.328 333.738 70.56C337.834 62.752 339.882 57.76 339.882 55.584C339.882 54.624 339.53 54.144 338.826 54.144C336.202 54.144 332.266 58.432 327.018 67.008C323.562 72.576 320.458 78.304 317.706 84.192L317.514 84.288C316.682 83.968 315.946 83.808 315.306 83.808C314.218 83.808 313.322 84.224 312.618 85.056C311.978 85.888 311.594 86.304 311.466 86.304ZM381.917 84.96C378.781 84.96 376.605 84.096 375.389 82.368C374.173 80.576 373.565 78.08 373.565 74.88C373.565 70.272 375.485 65.472 379.325 60.48C383.421 55.232 387.677 52.608 392.093 52.608C395.357 52.608 396.989 53.728 396.989 55.968C396.989 58.72 395.485 61.6 392.477 64.608C388.189 68.96 383.677 71.136 378.941 71.136C378.173 73.12 377.789 75.104 377.789 77.088C377.789 79.264 378.205 80.96 379.037 82.176C379.869 83.392 381.085 84 382.685 84C384.349 84 386.077 83.552 387.869 82.656C389.661 81.696 391.197 80.576 392.477 79.296C393.565 78.208 394.781 76.736 396.125 74.88C397.533 72.96 398.941 70.624 400.349 67.872C400.541 67.552 400.733 67.392 400.925 67.392C401.309 67.392 401.309 67.712 400.925 68.352C399.837 70.528 398.653 72.608 397.373 74.592C396.157 76.576 394.525 78.496 392.477 80.352C391.261 81.568 389.725 82.656 387.869 83.616C386.013 84.512 384.029 84.96 381.917 84.96ZM379.037 70.464C382.557 70.464 386.493 68.576 390.845 64.8V64.704C392.061 63.68 393.213 62.272 394.301 60.48C395.581 58.496 396.221 56.8 396.221 55.392C396.221 54.368 395.453 53.856 393.917 53.856C391.485 53.856 388.541 56.032 385.085 60.384C383.485 62.304 382.205 64.096 381.245 65.76C380.285 67.424 379.549 68.992 379.037 70.464ZM416.073 84.672C411.401 84.672 409.065 81.472 409.065 75.072C409.065 74.112 409.129 73.152 409.257 72.192C409.385 71.232 409.577 70.272 409.833 69.312C411.433 63.232 413.545 57.536 416.169 52.224C417.193 50.112 418.281 48.064 419.433 46.08C420.649 44.096 421.897 42.208 423.177 40.416C424.521 38.56 425.929 36.768 427.401 35.04C428.873 33.312 430.409 31.712 432.009 30.24C436.553 26.016 440.329 23.904 443.337 23.904C446.025 23.904 447.369 25.184 447.369 27.744C447.369 29.792 446.441 32.416 444.585 35.616C443.049 38.304 441.385 40.544 439.593 42.336C434.153 47.968 427.305 53.248 419.049 58.176C414.953 67.904 412.905 74.88 412.905 79.104C412.905 80.768 413.193 81.984 413.769 82.752C414.409 83.456 415.305 83.808 416.457 83.808C417.993 83.808 419.401 83.264 420.681 82.176C422.025 81.088 423.241 79.744 424.329 78.144C425.417 76.544 426.377 74.912 427.209 73.248C428.041 71.584 428.681 70.144 429.129 68.928C429.001 68.608 428.841 68 428.649 67.104C428.521 66.144 428.457 65.184 428.457 64.224C428.457 63.136 428.585 62.208 428.841 61.44C429.097 60.608 429.545 60.192 430.185 60.192C431.209 60.192 431.721 60.96 431.721 62.496C431.721 63.328 431.593 64.288 431.337 65.376C431.081 66.464 430.665 67.616 430.089 68.832C430.217 70.304 430.505 71.552 430.953 72.576C431.401 73.6 432.169 74.112 433.257 74.112C434.345 74.112 435.369 73.568 436.329 72.48C437.289 71.328 438.249 69.792 439.209 67.872C439.209 67.808 439.273 67.776 439.401 67.776C439.529 67.776 439.625 67.872 439.689 68.064C439.817 68.192 439.817 68.352 439.689 68.544C438.793 70.528 437.833 72.064 436.809 73.152C435.785 74.24 434.537 74.784 433.065 74.784C430.953 74.784 429.737 73.216 429.417 70.08C425.705 79.808 421.257 84.672 416.073 84.672ZM419.721 56.928C427.977 51.36 434.313 46.368 438.729 41.952C443.785 36.768 446.313 31.968 446.313 27.552C446.313 25.504 445.321 24.48 443.337 24.48C439.881 24.48 435.305 28.992 429.609 38.016C427.817 40.896 426.089 43.936 424.425 47.136C422.825 50.272 421.257 53.536 419.721 56.928ZM455.608 84.96C452.472 84.96 450.296 84.096 449.08 82.368C447.864 80.576 447.256 78.08 447.256 74.88C447.256 70.272 449.176 65.472 453.016 60.48C457.112 55.232 461.368 52.608 465.784 52.608C469.048 52.608 470.68 53.728 470.68 55.968C470.68 58.72 469.176 61.6 466.168 64.608C461.88 68.96 457.368 71.136 452.632 71.136C451.864 73.12 451.48 75.104 451.48 77.088C451.48 79.264 451.896 80.96 452.728 82.176C453.56 83.392 454.776 84 456.376 84C458.04 84 459.768 83.552 461.56 82.656C463.352 81.696 464.888 80.576 466.168 79.296C467.256 78.208 468.472 76.736 469.816 74.88C471.224 72.96 472.632 70.624 474.04 67.872C474.232 67.552 474.424 67.392 474.616 67.392C475 67.392 475 67.712 474.616 68.352C473.528 70.528 472.344 72.608 471.064 74.592C469.848 76.576 468.216 78.496 466.168 80.352C464.952 81.568 463.416 82.656 461.56 83.616C459.704 84.512 457.72 84.96 455.608 84.96ZM452.728 70.464C456.248 70.464 460.184 68.576 464.536 64.8V64.704C465.752 63.68 466.904 62.272 467.992 60.48C469.272 58.496 469.912 56.8 469.912 55.392C469.912 54.368 469.144 53.856 467.608 53.856C465.176 53.856 462.232 56.032 458.776 60.384C457.176 62.304 455.896 64.096 454.936 65.76C453.976 67.424 453.24 68.992 452.728 70.464ZM490.436 84.768C485.252 84.768 482.66 81.344 482.66 74.496C482.66 70.4 483.556 65.632 485.348 60.192C486.18 57.696 487.076 55.296 488.036 52.992C488.996 50.688 490.02 48.544 491.108 46.56C492.452 44.128 493.86 41.824 495.332 39.648C496.804 37.408 498.372 35.296 500.036 33.312C504.836 27.36 508.932 24.384 512.324 24.384C513.732 24.384 514.436 25.056 514.436 26.4C514.436 28.192 513.7 30.944 512.228 34.656C507.3 46.88 499.3 58.016 488.228 68.064C487.14 72.096 486.596 75.328 486.596 77.76C486.596 81.92 487.908 84 490.532 84C491.428 84 492.292 83.84 493.124 83.52C493.956 83.136 494.692 82.72 495.332 82.272C497.06 80.928 498.532 79.36 499.748 77.568C500.964 75.776 502.02 73.984 502.916 72.192C503.812 70.4 504.612 68.896 505.316 67.68C505.508 67.36 505.7 67.264 505.892 67.392C506.084 67.456 506.116 67.648 505.988 67.968C504.708 70.656 503.3 73.408 501.764 76.224C500.228 79.04 498.276 81.28 495.908 82.944C494.18 84.16 492.356 84.768 490.436 84.768ZM488.516 67.104C489.796 66.016 491.14 64.672 492.548 63.072C493.956 61.472 495.46 59.648 497.06 57.6C498.66 55.552 500.292 53.28 501.956 50.784C503.62 48.288 505.284 45.6 506.948 42.72C511.428 35.104 513.668 29.792 513.668 26.784C513.668 25.696 513.316 25.152 512.612 25.152C510.244 25.152 506.02 30.24 499.94 40.416C498.34 43.296 496.9 46.08 495.62 48.768C494.084 52.16 492.708 55.392 491.492 58.464C490.34 61.472 489.348 64.352 488.516 67.104Z" fill='#fff'/>
</svg>

