<?xml version="1.0" standalone="no"?>
<!DOCTYPE svg PUBLIC "-//W3C//DTD SVG 20010904//EN"
 "http://www.w3.org/TR/2001/REC-SVG-20010904/DTD/svg10.dtd">
<svg version="1.0" xmlns="http://www.w3.org/2000/svg"
 width="512.000000pt" height="512.000000pt" viewBox="0 0 512.000000 512.000000"
 preserveAspectRatio="xMidYMid meet">

<g transform="translate(0.000000,512.000000) scale(0.100000,-0.100000)"
fill="#ffffff" stroke="none">
<path d="M3766 2562 c-159 -680 -292 -1240 -295 -1244 -4 -4 -181 125 -396
287 l-389 294 -227 -232 -228 -232 629 -629 628 -629 89 38 c473 202 897 572
1166 1018 248 409 369 843 370 1326 l0 183 -529 529 -529 529 -289 -1238z"/>
<path d="M1640 2065 c305 -305 555 -553 556 -552 2 1 -48 184 -110 407 l-112
405 -434 147 c-239 80 -439 147 -445 147 -5 1 240 -249 545 -554z"/>
</g>
</svg>
