<?xml version="1.0" standalone="no"?>
<!DOCTYPE svg PUBLIC "-//W3C//DTD SVG 20010904//EN"
 "http://www.w3.org/TR/2001/REC-SVG-20010904/DTD/svg10.dtd">
<svg version="1.0" xmlns="http://www.w3.org/2000/svg"
 width="512.000000pt" height="512.000000pt" viewBox="0 0 512.000000 512.000000"
 preserveAspectRatio="xMidYMid meet">

<g transform="translate(0.000000,512.000000) scale(0.100000,-0.100000)"
fill="#000000" stroke="none">
<path d="M176 4030 c-60 -23 -115 -75 -147 -138 -22 -43 -24 -59 -23 -177 1
-202 46 -387 133 -551 83 -155 399 -635 614 -934 488 -677 855 -1039 1154
-1139 59 -20 83 -21 461 -21 438 0 448 1 522 60 21 17 50 54 64 82 24 47 26
63 26 169 0 163 12 214 64 265 24 25 58 46 81 53 111 31 133 16 440 -288 274
-272 304 -295 422 -326 46 -12 139 -15 493 -15 435 0 435 0 485 24 94 43 149
129 149 231 0 105 5 98 -440 545 l-414 416 0 62 0 61 364 456 c254 319 377
480 405 534 87 167 112 361 60 472 -34 72 -99 134 -167 159 -53 20 -73 21
-496 18 l-441 -3 -54 -30 c-29 -16 -66 -45 -82 -64 -15 -19 -56 -105 -90 -190
-125 -314 -265 -594 -438 -878 -54 -88 -97 -148 -115 -158 -41 -25 -142 -31
-189 -12 l-37 16 0 573 c0 533 -2 576 -19 613 -23 51 -89 111 -138 124 -24 7
-216 11 -536 11 -544 0 -540 0 -566 -57 -24 -51 -14 -78 56 -157 36 -42 77
-94 89 -117 52 -91 54 -110 54 -580 0 -423 -1 -439 -19 -449 -24 -12 -65 1
-100 33 -13 12 -66 87 -119 167 -205 312 -376 607 -552 950 -69 133 -102 188
-120 197 -19 10 -123 13 -405 12 -351 0 -384 -1 -429 -19z"/>
</g>
</svg>
