<?xml version="1.0" encoding="UTF-8" standalone="no"?> <svg xmlns="http://www.w3.org/2000/svg" width="302.000000pt" height="92.000000pt" viewBox="0 0 302.000000 92.000000" preserveAspectRatio="xMidYMid meet"> <g transform="translate(0.000000,92.000000) scale(0.100000,-0.100000)" fill="#000000" stroke="none"> <path d="M206 741 c-7 -10 -63 -328 -71 -398 -7 -63 4 -103 28 -103 7 0 13 13 14 30 1 16 7 49 14 72 l11 43 34 -67 c48 -95 77 -108 123 -57 l28 31 7 -26 c7 -30 32 -35 40 -8 3 9 12 44 22 77 21 76 46 125 85 170 39 44 64 47 55 8 -17 -69 -17 -80 -1 -96 9 -10 26 -17 38 -17 20 0 20 0 1 14 -17 13 -18 17 -5 48 32 79 25 98 -35 98 -41 0 -78 -30 -115 -94 l-30 -51 7 50 c11 74 10 98 -3 102 -17 6 -31 -33 -54 -151 -24 -124 -56 -181 -90 -160 -9 5 -69 117 -69 128 0 2 13 7 29 11 51 11 91 69 91 132 0 67 -47 85 -91 36 l-24 -28 26 23 c14 12 33 22 42 22 40 0 26 -88 -23 -138 -16 -17 -31 -22 -60 -20 -34 2 -39 5 -35 22 7 30 55 285 55 290 0 7 -40 14 -44 7z"></path> <path d="M2331 713 c-6 -21 -24 -116 -40 -211 -35 -209 -57 -251 -127 -252 -40 0 -64 27 -64 72 0 34 2 36 41 42 52 8 94 49 109 105 9 36 9 47 -5 68 -15 23 -22 25 -62 20 -83 -9 -143 -98 -143 -212 0 -28 -6 -57 -12 -65 -11 -12 -10 -12 5 0 17 12 20 12 28 -3 13 -23 62 -47 96 -47 29 0 72 23 86 47 13 21 27 15 27 -12 0 -29 7 -31 30 -10 13 12 23 13 49 4 87 -30 170 58 171 183 0 70 -11 102 -45 124 -21 14 -30 14 -55 4 -16 -7 -36 -23 -45 -37 -9 -14 -19 -23 -22 -20 -2 3 3 53 12 112 14 90 15 109 4 116 -23 14 -28 11 -38 -28z m120 -185 c23 -42 -8 -195 -46 -234 -27 -27 -42 -29 -69 -9 -18 14 -17 17 14 114 30 95 60 151 80 151 5 0 14 -10 21 -22z m-213 -20 c7 -62 -51 -128 -112 -128 -23 0 -24 2 -14 38 14 50 44 109 60 116 7 2 24 4 38 3 19 -2 26 -8 28 -29z"></path> <path d="M2845 741 c-10 -17 -75 -375 -75 -416 0 -2 -14 -20 -31 -40 -24 -27 -39 -35 -64 -35 -19 0 -41 7 -49 16 -19 19 -22 94 -3 94 44 0 89 24 112 59 28 42 35 102 15 126 -23 27 -85 19 -126 -17 -93 -81 -100 -238 -14 -283 46 -24 85 -19 124 15 32 29 35 29 41 11 18 -58 72 -51 111 15 14 24 24 47 21 50 -2 3 -17 -16 -32 -41 -31 -54 -58 -58 -63 -8 -2 17 13 117 33 222 20 105 35 201 33 213 -3 24 -23 35 -33 19z m-97 -233 c4 -35 -33 -103 -65 -117 -13 -6 -35 -11 -49 -11 -22 0 -24 3 -18 28 22 90 55 134 98 130 25 -2 32 -8 34 -30z"></path> <path d="M1236 557 c-37 -37 -34 -78 8 -124 l33 -37 -31 -21 c-17 -11 -41 -36 -53 -55 -40 -63 -51 -75 -59 -67 -12 12 -7 101 11 186 20 97 20 123 -2 119 -13 -2 -33 -43 -68 -133 -54 -140 -61 -155 -76 -155 -13 0 -11 68 6 157 20 105 20 135 -2 131 -21 -4 -38 -58 -58 -182 -13 -81 -33 -126 -57 -126 -13 0 -9 117 7 210 8 47 15 88 15 92 0 3 -21 7 -47 7 -27 1 -61 2 -76 3 -68 3 -127 -85 -127 -190 0 -37 6 -75 15 -92 27 -52 84 -49 131 8 l21 26 8 -32 c10 -46 40 -60 75 -34 28 21 28 21 45 1 10 -10 23 -19 30 -19 16 0 49 38 73 85 l21 40 1 -40 c0 -44 22 -85 46 -85 8 0 23 9 35 21 l20 20 20 -25 c17 -21 29 -26 65 -26 37 0 51 6 76 30 27 27 29 36 26 78 -3 26 -8 54 -12 63 -6 14 2 18 46 25 29 4 43 10 31 12 -12 2 -38 -1 -57 -6 -33 -10 -38 -8 -81 32 -25 23 -45 49 -45 58 0 37 70 64 98 36 7 -7 12 -25 12 -41 0 -35 24 -32 28 4 4 35 -28 60 -82 66 -38 5 -48 2 -70 -20z m-394 -21 c17 -12 16 -19 -12 -107 -30 -94 -62 -159 -79 -159 -24 0 -33 32 -28 98 12 145 60 213 119 168z m468 -175 c15 -30 12 -82 -7 -103 -20 -22 -76 -24 -93 -3 -18 22 -5 59 35 94 42 36 51 38 65 12z"></path> <path d="M1651 557 c-12 -16 -51 -203 -51 -249 0 -41 23 -78 39 -63 6 6 23 56 39 110 31 110 69 190 92 190 23 0 24 -48 4 -163 -14 -87 -15 -105 -3 -112 19 -12 36 5 43 45 10 53 74 171 107 199 57 48 59 37 27 -104 -23 -104 -20 -143 13 -161 27 -14 34 -6 18 19 -11 17 -9 34 11 104 43 154 38 188 -26 188 -25 0 -42 -9 -69 -35 -19 -20 -35 -40 -35 -45 0 -6 -4 -10 -9 -10 -6 0 -11 17 -13 37 -2 28 -9 41 -30 52 -25 14 -29 14 -55 -5 -17 -13 -39 -48 -57 -92 -16 -40 -32 -70 -34 -68 -3 4 6 61 23 142 6 25 -18 39 -34 21z"></path> <path d="M226 495 c-9 -26 -7 -32 5 -12 6 10 9 21 6 23 -2 3 -7 -2 -11 -11z"></path> <path d="M1457 276 c-3 -8 1 -22 8 -33 13 -17 15 -17 31 -1 9 9 14 24 11 32 -8 20 -43 21 -50 2z"></path> </g> </svg> 