<?xml version="1.0" encoding="utf-8"?>
<!-- Generator: Adobe Illustrator 19.2.1, SVG Export Plug-In . SVG Version: 6.00 Build 0)  -->
<svg version="1.1" id="Layer_1" xmlns="http://www.w3.org/2000/svg" xmlns:xlink="http://www.w3.org/1999/xlink" x="0px" y="0px"
	 viewBox="0 0 660.6 100.8" style="enable-background:new 0 0 660.6 100.8;" xml:space="preserve">
<g>
	<path d="M0.6,74.7c0-4.9,4.9-14.9,14.7-30c-4-0.3-8.9-0.4-14.7-0.4c1.6-4.3,5.5-6.4,11.6-6.4c1.3,0,3.8,0.2,7.4,0.7
		c7.5-10.9,14.5-20,21-27.4C47.1,3.7,51.4,0,53.5,0c1.7,0,4,1.3,6.8,3.9C58.1,5.6,55,13.6,50.9,28s-6.2,25.6-6.2,33.7
		c0,5.4,1.2,8.1,3.5,8.1c3.6,0,8-5.1,13.3-15.2l1.8,1.9c-2.1,5.6-4.9,10.1-8.2,13.5c-3.3,3.4-6.8,5.1-10.4,5.1
		c-5.9,0-8.9-5.1-8.9-15.2c0-3.3,0.4-7.6,1.3-12.7c-3.4-0.5-8.2-1.2-14.3-1.9c-6.2,11-12.1,22.9-17.6,35.6
		C2.1,79.3,0.6,77.3,0.6,74.7z M26,40c1.5,0.3,3.8,0.8,6.7,1.4s4.7,1,5.5,1.1C40.5,31,44.1,19.8,48.7,8.8C42.8,13.6,35.2,24,26,40z"
		/>
	<path d="M58.8,64.7c0-6.1,2.1-14.5,6.3-25c4.2-10.5,8.9-19.7,14-27.6c5.1-7.9,8.9-11.9,11.4-11.9c1.1,0,2.1,0.9,2.9,2.7
		c0.8,1.8,1.2,3.6,1.3,5.4c0,3.1-1.1,7.4-3.4,13.1c-2.3,5.6-5.6,11.6-9.9,18c-4.3,6.3-8.8,11.4-13.6,15.1c-0.7,3.9-1.1,7-1.1,9.1
		c0,0.1,0,0.2,0,0.3c0,4.6,1.4,6.9,4.3,6.9c2.3,0,4.8-1.6,7.4-4.7c2.6-3.1,5-6.9,7-11.3l2.4,1.3c-2.9,6-6.1,10.7-9.7,14.1
		c-3.5,3.4-7.2,5-11,5C61.7,75.2,58.8,71.7,58.8,64.7z M69.7,48.2c5.3-5.8,10.1-12.8,14.2-21.1c4.2-8.2,6.3-14.2,6.3-17.8
		c-0.9,0-2.6,1.9-5.1,5.8c-2.5,3.9-5.3,8.9-8.3,15.2C73.9,36.5,71.5,42.5,69.7,48.2z"/>
	<path d="M81.4,64.5c0-6,2.8-12.3,8.4-18.7c5.6-6.4,11.4-9.6,17.4-9.6c4.9,0,7.4,2.2,7.4,6.6c0,4.8-2.6,9.1-7.9,12.8
		c-5.2,3.7-11.1,5.9-17.5,6.6c-0.1,0.7-0.2,1.4-0.2,2.3c0,0.7,0,1.3,0.2,1.9c0.1,0.6,0.4,1.4,0.8,2.4c0.4,1,1.2,1.9,2.4,2.5
		c1.2,0.6,2.6,1,4.4,1c4.1,0,8.2-1.6,12.5-5c4.2-3.3,7.6-7.4,10.3-12.4l2,1.6c-2.7,6-6.5,10.8-11.5,14.4c-5,3.6-10.1,5.5-15.5,5.5
		c-4.2,0-7.4-1.1-9.7-3.4C82.6,70.9,81.4,68,81.4,64.5z M90.4,58.5c3.9-0.5,8-2.4,12.3-5.8s6.5-6.9,6.5-10.4c0-1.3-0.6-1.9-1.7-1.9
		c-3,0-6.2,1.9-9.7,5.8C94.4,50.1,91.9,54.2,90.4,58.5z"/>
	<path d="M118,57.9c0.5-0.9,1.2-2.3,2-4.2c0.8-1.8,1.6-3.4,2.3-4.6c0.7-1.3,1.5-2.5,2.5-3.8c1-1.3,2.2-2.3,3.5-3c1.4-0.7,3-1,4.8-1
		c2.5,0,4.5,0.7,5.9,2.1c1.4,1.4,2.5,3.5,3.3,6.3c7.1-7,11.5-10.5,13.3-10.5c0.5,0,1.1,0.2,1.8,0.7c0.7,0.5,1.2,1.1,1.5,1.9
		c-1.3,0-3.4,1.2-6.3,3.7c-2.9,2.5-6.1,5.6-9.5,9.4c0.1,0.5,0.2,1.5,0.3,3c0.2,1.5,0.3,2.9,0.5,4.1c0.2,1.2,0.5,2.5,0.9,3.9
		c0.4,1.3,0.9,2.4,1.5,3.2c0.7,0.8,1.5,1.2,2.4,1.2c2.1,0,4.5-1.7,7.4-5c2.8-3.3,5-6.7,6.5-9.9l1.6,1.5c-1.9,4.9-4.5,9.1-8,12.8
		c-3.5,3.7-7,5.5-10.5,5.5c-4.7,0-7.8-4.1-9.1-12.2c-4.1,4.6-8.1,9.5-12.2,14.6c-0.5,0.6-1.1,0.9-1.7,0.9c-0.5,0-1-0.2-1.3-0.6
		c-0.3-0.4-0.5-0.9-0.5-1.4c0-2.6,5-9.2,14.9-19.7c-0.3-2-0.6-3.5-0.8-4.4c-0.2-0.9-0.4-1.9-0.8-3c-0.3-1.1-0.7-1.8-1.2-2.2
		c-0.5-0.4-1.1-0.6-1.8-0.6c-0.9,0-1.7,0.3-2.5,0.8c-0.8,0.5-1.6,1.4-2.4,2.5c-0.8,1.1-1.5,2.2-2.2,3.2c-0.6,1-1.4,2.4-2.3,4
		s-1.7,2.9-2.3,3.9L118,57.9z"/>
	<path d="M186.5,62.6c0-4.9,1.5-8.5,4.6-10.6c3.1-2.2,6.7-3.3,10.8-3.3c-4.3,4.5-6.5,9.2-6.5,13.9c0,3.6,1.4,6.7,4.2,9.2
		c2.8,2.5,6.6,3.8,11.5,3.8c4.9,0,9.2-1.2,12.9-3.6c3.7-2.4,5.6-5.7,5.6-9.9c0-3-1.1-5.7-3.3-8.1c-2.2-2.4-4.9-4.4-8.1-6.1l-9.5-5.2
		c-3.1-1.7-5.8-4-8.1-6.6c-2.3-2.7-3.4-5.8-3.4-9.1c0-3.8,1.2-7.7,3.5-11.8c2.3-4,5.8-7.5,10.4-10.5c4.6-3,9.7-4.5,15.3-4.5
		c8.3,0,12.5,3.5,12.5,10.5c0,3.4-0.8,7.2-2.4,11.4c-1.6,4.2-3.4,7.9-5.5,11c-3-0.6-4.5-2.3-4.5-5.1c0-1.9,1-5.3,3-10.1
		c2-4.9,3-8.3,3-10c0-1.3-0.4-2.2-1.2-2.9c-0.8-0.6-2.2-1-4.3-1c-5.9,0-11,2.3-15.4,7c-4.4,4.7-6.5,9.2-6.5,13.6
		c0,2.6,1.1,5,3.3,7.1c2.2,2.1,4.9,3.9,8,5.5c3.1,1.6,6.3,3.3,9.4,5c3.1,1.8,5.8,4.1,8,7c2.2,2.9,3.3,6.3,3.3,10.1
		c0,6.5-2.8,11.8-8.4,15.7c-5.6,3.9-11.9,5.9-19,5.9c-6.3,0-11.7-1.6-16.2-4.8C188.7,72.9,186.5,68.4,186.5,62.6z"/>
	<path d="M239.5,72.2c3.9-16,5.9-24.4,6.2-25.4c0.2-0.7,0.9-1.4,2.1-1.9c1.2-0.6,2.4-0.8,3.4-0.8s1.8,0.3,2.4,0.8
		c0.6,0.6,1,1.3,1,2.3c0,1.1-0.5,3.5-1.4,7.4c7.5-10.4,14-15.7,19.5-15.7c4.2,0,6.3,2.9,6.3,8.6c0,2-0.6,4.7-1.7,8.1
		c4.7-7,9.5-10.5,14.5-10.5c2.4,0,4.1,0.7,5.2,2.2c1.1,1.5,1.6,3.3,1.6,5.5c0,1.8-0.6,4.6-1.7,8.2c-1.1,3.6-1.7,5.9-1.7,6.9
		c0,1.8,0.8,2.7,2.4,2.7c4.2,0,8.7-5.1,13.5-15.4l1.7,2.1c-1.9,5-4.4,9.2-7.5,12.8c-3,3.6-6.5,5.4-10.4,5.4c-2.5,0-4.4-0.7-5.8-2.2
		c-1.3-1.5-2-3.3-2-5.6c0-1.5,0.5-3.8,1.4-6.8c0.9-3,1.4-5.1,1.4-6.2c0-2-0.8-3-2.3-3c-1.5,0-3.2,1.1-5.1,3.2
		c-1.9,2.1-4.5,5.6-7.8,10.4c-0.9,1.2-1.9,2.9-3.2,5.2c-1.2,2.3-2,3.7-2.3,4.2c-1.2,0-2.5-0.2-3.9-0.7c-1.4-0.5-2.1-1.1-2.1-1.9
		c0-0.5,1.1-3.6,3.3-9.5c2.2-5.9,3.3-10,3.3-12.4c0-2.1-0.7-3.1-2.1-3.1c-2.7,0-6.5,3-11.3,9c-4.8,6-8.4,12.4-10.8,19
		c-1.2,0-2.5-0.3-4.1-1C240.3,73.3,239.5,72.7,239.5,72.2z"/>
	<path d="M308,66.3c0-2.7,0.7-6.2,2.1-10.6c1.4-4.4,3.3-8.4,5.7-12c2.4-3.7,4.8-5.5,7.1-5.5c0.9,0,1.6,0.3,2.1,0.8
		c0.6,0.5,0.8,1.2,0.8,2.2c0,0.9-0.8,2.7-2.5,5.5c-1.7,2.8-3.4,5.9-5.1,9.4c-1.7,3.5-2.6,6.5-2.6,9.1c0,2.1,0.4,3.5,1.1,4.2
		c0.7,0.7,1.8,1.1,3.4,1.1c5.3,0,10.5-5.1,15.7-15.3l1.5,1.6c-2.3,5.8-5.3,10.4-8.9,13.7s-7.4,4.9-11.5,4.9c-2.8,0-5-0.8-6.6-2.5
		S308,68.9,308,66.3z M323.6,26.2c0-1.5,0.9-2.9,2.5-4c1.7-1.2,3.5-1.8,5.5-1.8c2.9,0,4.3,1.2,4.3,3.7c0,1.4-0.8,2.8-2.3,4.1
		c-1.5,1.3-3.2,1.9-5,1.9c-1.4,0-2.6-0.3-3.5-1C324.1,28.4,323.6,27.5,323.6,26.2z"/>
	<path d="M332.5,66.2c0-5.6,1.9-13.6,5.8-24.1c-1.7-0.6-2.9-1-3.6-1.3v-3.1c0.8,0.1,1.6,0.3,2.6,0.5c0.9,0.2,1.7,0.4,2.3,0.5
		c2.9-7.4,6-13.6,9.3-18.7c3.2-5.1,6-7.6,8.2-7.6c0.7,0,1.4,0.3,2,0.8c0.6,0.5,0.9,1.1,0.9,1.8c0,1.1-1,3.6-3,7.4
		c-2,3.8-4.1,7.7-6.4,11.6c-2.3,4-3.5,6.1-3.7,6.4c3.4,0.6,6.5,0.9,9.2,0.9c3.5,0,7.8-0.5,12.9-1.5c3.8-10.1,8.2-19.1,13.1-27.1
		s9-11.9,12-11.9c1.2,0,2.2,0.7,2.9,2.2c0.7,1.4,1.1,3.1,1.1,5c0,4.8-2.2,10.9-6.7,18.2c-4.5,7.3-9.6,12.7-15.5,16.1
		c-1.2,2.8-2.3,6.6-3.2,11.4c-0.9,4.8-1.4,8.5-1.4,11.1c6-15.3,12.7-22.9,20.4-22.9c2.8,0,5,0.9,6.4,2.6c1.5,1.8,2.2,3.9,2.2,6.3
		c0,2.2-0.7,5.2-2,9c-1.4,3.8-2.1,6.4-2.1,7.7c0,2.2,0.9,3.3,2.7,3.3c2.2,0,4.9-1.7,8.1-5c3.2-3.4,5.7-7.2,7.6-11.5l1.9,1.9
		c-2.3,5.5-5.3,9.9-8.8,13.4c-3.6,3.5-7.3,5.3-11.2,5.3c-2.5,0-4.4-0.7-5.8-2c-1.4-1.3-2.1-3-2.1-5.1c0-1.4,0.5-3.8,1.4-7.2
		c1-3.5,1.5-6,1.5-7.6c0-2.9-1.2-4.4-3.5-4.4c-2.2,0-4.3,1.5-6.3,4.4c-2,2.9-3.5,6.1-4.7,9.6s-2.5,6.6-4.1,9.5
		c-1.6,2.9-3.1,4.3-4.6,4.3c-1.7,0-3-1.5-3.8-4.5c-0.8-3-1.2-5.7-1.2-8.2c-2.7,4.2-5.9,7.4-9.5,9.8c-3.6,2.4-7.3,3.6-11.2,3.6
		c-3.2,0-5.6-0.9-7.4-2.7C333.4,72.3,332.5,69.7,332.5,66.2z M340.2,63.8c0,2.9,0.4,4.9,1.2,6.1s2.2,1.8,4.2,1.8
		c3.3,0,6.7-1.5,10.1-4.5c3.4-3,6.3-7.1,8.8-12.3c0.9-4.4,1.9-8.1,3.1-11c-4,0.8-7.8,1.2-11.3,1.2c-3.4,0-7-0.4-10.9-1.1
		C341.9,51.4,340.2,58,340.2,63.8z M378,35.8c4.2-3.6,7.9-8.1,11-13.5s4.6-9.4,4.6-12c-1.4,0.4-3.7,3.1-7.1,8.3
		C383.1,23.7,380.2,29.4,378,35.8z"/>
	<path d="M426.6,11c0-1.1,1.1-3,3.3-5.5c2.2-2.5,3.4-4.4,3.8-5.5c0.9,0,1.8,0.4,2.6,1.1c0.8,0.7,1.2,1.5,1.2,2.4
		c0,0.9-0.4,1.9-1.2,3.2c-0.8,1.3-1.9,2.8-3.4,4.6c-1.4,1.8-2.4,3.1-2.8,3.8C427.7,13.8,426.6,12.5,426.6,11z"/>
	<path d="M425.7,63.7c0-2.3,0.4-4.1,1.2-5.3c0.8-1.2,1.9-2.1,3.2-2.6c1.3-0.5,2-0.9,2.1-1c4.2-4.4,7.4-9,9.6-13.7v-1
		c0-4.9,1.5-7.3,4.6-7.3c1.5,0,2.3,0.7,2.4,2c0,0.2-0.1,0.7-0.3,1.4c-0.2,0.8-0.3,1.5-0.3,2.2c0,1.8,1,5.4,2.9,10.8
		c1.9,5.4,2.9,9.8,2.9,13c0,1.1-0.1,2.5-0.4,4.1c4.5-1.1,8.5-4.9,11.8-11.3l1.2,0.9c-2.7,7.9-7.4,12.4-13.9,13.4
		c-1.1,2.7-2.8,4.7-5.2,6c-2.4,1.4-5.2,2.1-8.3,2.1c-4.6,0-8.1-1.4-10.3-4.1C426.8,70.7,425.7,67.4,425.7,63.7z M431.2,63.8
		c0,2.4,0.7,4.5,2,6.4c1.3,1.8,3.1,2.8,5.5,2.8c3,0,5.1-1.3,6.4-3.9c-2.6-0.5-5-1.5-7.2-3c-2.2-1.5-4-3.1-5.3-4.9
		C431.7,61.3,431.2,62.2,431.2,63.8z M434.1,57.5c1.1,1.9,2.7,3.7,4.8,5.3c2.1,1.6,4.4,2.7,7,3.3c0.2-0.6,0.3-1.6,0.3-3.1
		c0-1.4-0.1-3-0.4-4.7c-0.3-1.7-0.5-3-0.7-4c-0.2-1-0.6-2.6-1.2-4.9c-0.6-2.3-1-3.8-1.1-4.4C439.5,50.7,436.6,54.8,434.1,57.5z"/>
	<path d="M492.8,71.7c0-0.7,0.4-1,1.1-1c0.2,0,0.6,0.1,1.3,0.4c0.7,0.3,1.8,0.5,3.2,0.8c1.4,0.2,3.1,0.3,5.1,0.3
		c11.3,0,20.7-2.2,28.3-6.7c7.6-4.5,11.4-9.6,11.4-15.5c0-7.9-8.3-11.9-25-11.9c-0.1,0-0.1,0-0.2,0c-0.8,0-2.1,0-3.7,0.1
		c-1.6,0-2.8,0-3.5,0c-1,3.6-2.4,9-4.4,16.2c-1.9,7.2-3.4,12.3-4.5,15.4c-1.9,0-3.6-0.5-5.1-1.6c-1.4-1.1-2.1-2.4-2.1-3.9
		c0-1.2,0.3-2.7,1-4.6l0.4-1.2c0.1-0.3,0.8-2.4,2-6.1l3.5-10.8l4.2-12.2c1.7-4.6,3.4-9.1,5.2-13.5c1.8-4.4,3.5-8.1,5.2-11.3
		c-2.3,0.5-4.5,1.2-6.4,2.1s-3.4,1.6-4.5,2.1c-1,0.6-1.8,0.8-2.2,0.8c-0.7,0-1.5-0.5-2.5-1.4c-1-0.9-1.5-1.7-1.5-2.4
		c3.1-1.3,5.5-2.2,7.4-2.9c1.9-0.6,4.5-1.3,7.7-1.9s6.6-0.9,10-0.9c2.2,0,4.3,0.1,6.3,0.3c2,0.2,4.2,0.6,6.6,1.3
		c2.4,0.7,4.5,1.6,6.2,2.7c1.7,1.1,3.2,2.7,4.3,4.7c1.2,2,1.8,4.4,1.8,7.1c0,9.3-7,15.6-21,19c7.6,1,13.1,3,16.5,6.1
		c3.4,3.1,5.1,6.4,5.1,10c0,4.5-1.6,8.7-4.8,12.5c-3.2,3.8-7.1,6.9-11.9,9.2c-4.7,2.3-9.6,4-14.6,5.3c-5,1.2-9.7,1.9-14,1.9
		C497,80.3,492.9,77.4,492.8,71.7z M511.7,34.4c4-0.1,7.7-0.6,11.1-1.3c3.4-0.7,6.6-1.8,9.6-3.2c3-1.4,5.4-3.3,7.1-5.7
		c1.7-2.4,2.6-5.3,2.6-8.5c0-7.9-6.3-11.9-18.8-11.9C519.5,10.9,515.7,21.1,511.7,34.4z"/>
	<path d="M553.9,64.7c0-6.1,2.1-14.5,6.3-25c4.2-10.5,8.9-19.7,14-27.6c5.1-7.9,8.9-11.9,11.4-11.9c1.1,0,2.1,0.9,2.9,2.7
		c0.8,1.8,1.2,3.6,1.3,5.4c0,3.1-1.1,7.4-3.4,13.1c-2.3,5.6-5.6,11.6-9.9,18c-4.3,6.3-8.8,11.4-13.6,15.1c-0.7,3.9-1.1,7-1.1,9.1
		c0,0.1,0,0.2,0,0.3c0,4.6,1.4,6.9,4.3,6.9c2.3,0,4.8-1.6,7.4-4.7c2.6-3.1,5-6.9,7-11.3l2.4,1.3c-2.9,6-6.1,10.7-9.7,14.1
		c-3.5,3.4-7.2,5-11,5C556.7,75.2,553.9,71.7,553.9,64.7z M564.8,48.2c5.3-5.8,10.1-12.8,14.2-21.1c4.2-8.2,6.3-14.2,6.3-17.8
		c-0.9,0-2.6,1.9-5.1,5.8c-2.5,3.9-5.3,8.9-8.3,15.2C569,36.5,566.6,42.5,564.8,48.2z"/>
	<path d="M577,66c0-4.4,1.3-8.7,3.8-12.9c2.5-4.2,5.3-6.3,8.2-6.3c0.8,0,1.8,0.3,3.1,0.8c0.4-3.1,1.5-5.7,3.2-7.7c1.7-2,4.2-3,7.4-3
		c2.8,0,4.9,0.8,6.2,2.3c1.3,1.5,2,3.5,2,5.9c0,4.6-2.3,10.3-7,17.1c0.8,0.4,1.8,0.6,2.9,0.6c1.9,0,3.9-0.6,6-1.9
		c2.1-1.2,3.8-3.1,4.9-5.7l1.8,1.3c-1.4,3.2-3.3,5.6-5.6,7.2c-2.4,1.7-4.8,2.5-7.4,2.5c-1.6,0-3.2-0.3-5.1-0.9
		c-5.5,6.6-11,10-16.5,10c-2.8,0-4.8-0.9-6-2.7C577.6,70.9,577,68.7,577,66z M585,65.7c0,3.1,1.1,4.6,3.4,4.6c2.3,0,5.5-2.3,9.4-7
		c-3.7-3.3-5.6-8.3-5.8-14.8c-1.3,0.7-2.8,3-4.5,6.9C585.9,59.5,585,62.9,585,65.7z M597.5,50.3c0,1.5,0.3,3.3,0.8,5.3
		c0.5,2,1.2,3.5,2.1,4.6c3.9-5.6,5.9-10.5,5.9-15c0-2.9-0.9-4.4-2.8-4.4c-1.4,0-2.8,0.9-4,2.8S597.5,47.6,597.5,50.3z"/>
	<path d="M613.6,93.9c0-1.6,0.5-3.2,1.4-4.8c0.9-1.6,1.9-2.9,3-3.9c1.1-1,2.7-2.2,5-3.6c2.2-1.3,3.9-2.3,5-2.8l5.7-2.8
		c1.7-4.1,3-8.2,4-12.2c-5.4,6.6-10.5,9.9-15.2,9.9c-2.7,0-4.8-0.9-6.3-2.7s-2.3-4.2-2.3-7.2c0-6.8,3.1-12.9,9.3-18.3
		c6.2-5.4,12.3-8.1,18.5-8.1c2.1,0,3.6,0.4,4.8,1.1c1.1,0.8,1.6,1.7,1.6,2.8c0,0.7-0.2,1.3-0.6,1.8c-0.4,0.5-0.7,0.8-1,0.9
		c-1.2-1.2-2.6-1.8-4.3-1.8c-0.1,0-0.1,0-0.2,0c-4.9,0-9.5,2.6-13.6,7.7c-4.1,5.1-6.2,9.9-6.2,14.4c0,2.8,1,4.2,3.1,4.2
		c1.8,0,4-1.2,6.7-3.6c2.6-2.4,5.3-5.4,7.8-9.1c0.7-3.8,1.6-6.5,2.6-8.2c1-1.7,2.4-2.5,4.3-2.5c0.9,0,1.8,0.1,2.9,0.4
		c0,1.7-0.7,5.2-2.2,10.4c-1.5,5.2-3.2,10.6-5.3,16.2c3.3-1.4,6.6-3.6,9.7-6.5c3.1-3,5.3-6.4,6.7-10.2l1.8,1.8
		c-1.5,4.2-4.1,7.9-7.9,11.3c-3.8,3.4-7.6,5.9-11.5,7.7c-6.6,16-13.3,24-20.1,24c-1.9,0-3.6-0.5-4.9-1.6
		C614.3,97.5,613.6,95.9,613.6,93.9z M618.4,92.9c0,1.9,0.6,2.8,1.8,2.8c1.3,0,3.1-1.2,5.2-3.7c2.1-2.5,4.3-6.2,6.6-11.3
		c-4.3,2.1-7.7,4.2-10.1,6.1C619.6,88.7,618.4,90.8,618.4,92.9z"/>
</g>
</svg>
